<svg width="76" height="76" viewBox="0 0 76 76" fill="none" xmlns="http://www.w3.org/2000/svg">
<g clip-path="url(#clip0_1380_1811)">
<path d="M34.802 62.9809C23.8226 62.332 14.2991 54.3048 11.7289 43.5581C7.48317 25.8063 22.4093 9.51782 40.2851 12.3141C49.1164 13.6959 56.7079 19.8775 59.9066 28.259L65.0001 28.2693V28.3298L57.6451 38.127L57.5058 38.0255C55.3019 34.7926 52.5378 31.7526 50.3861 28.5064C50.3375 28.4326 50.2738 28.3691 50.2913 28.2699C50.3585 28.3141 50.4041 28.2699 50.4407 28.2699H54.6733C51.6673 21.9801 45.235 17.5269 38.3129 16.9016C22.0059 15.4279 10.3877 32.7564 18.2819 47.3589C25.8248 61.3118 45.5592 61.8204 53.822 48.3047C54.6529 46.9458 55.0365 45.6348 55.7221 44.2923C56.8316 42.1183 60.1041 42.804 60.2566 45.2332C60.3041 45.991 59.792 47.0777 59.4876 47.7828C56.1117 55.5989 48.7219 61.3469 40.3457 62.6689L37.9244 62.9815C36.8984 62.9367 35.8226 63.042 34.8026 62.9815L34.802 62.9809Z" fill="white"/>
<path d="M17.6307 41.7248L22.0752 37.4934C24.859 34.517 20.9015 33.1019 18.9731 35.3388L17.2182 34.2497C17.1246 34.1166 17.4422 33.7604 17.54 33.651C19.816 31.1093 26.0784 31.4987 25.5386 36.0233C25.2841 38.1593 22.529 39.7013 21.2929 41.2712H25.9157V43.3273H17.6307V41.7248Z" fill="white"/>
<path d="M34.5019 32.3213L29.8209 38.8246C29.7741 38.9074 29.9506 38.9733 29.9692 38.9733H32.6108L32.7009 38.8826V36.9475L32.7909 36.8568H35.0123L35.1023 36.9475V38.9129C35.1611 38.8935 35.2326 38.9733 35.2524 38.9733H36.9034V41.0294H35.1023V43.3274H32.6408V41.0294H26.6973V39.3059L31.8904 32.3213H34.5019Z" fill="white"/>
<path d="M52.8121 32.3213V34.1052L48.7495 43.3298C47.9186 43.273 47.0649 43.3867 46.2382 43.354C46.1631 43.351 45.9878 43.3594 46.0335 43.2427L49.9304 34.3774H46.3282V36.1009L46.2382 36.1916H44.0469V32.3213H52.8121Z" fill="white"/>
<path d="M44.2272 30.084L39.0701 44.8624C38.4067 44.8926 37.7163 44.9386 37.0523 44.9289C37.0157 44.9289 36.898 44.9144 36.9004 44.8648L42.0053 30.084H44.2266H44.2272Z" fill="white"/>
</g>
<defs>
<clipPath id="clip0_1380_1811">
<rect width="54" height="51" fill="white" transform="translate(11 12)"/>
</clipPath>
</defs>
</svg>
