<?xml version="1.0" encoding="UTF-8"?>
<svg id="Layer_1" xmlns="http://www.w3.org/2000/svg" version="1.1" xmlns:xlink="http://www.w3.org/1999/xlink" viewBox="0 0 28 28">
  <!-- Generator: Adobe Illustrator 29.5.0, SVG Export Plug-In . SVG Version: 2.1.0 Build 137)  -->
  <defs>
    <style>
      .st0 {
        fill: #e93038;
      }

      .st1 {
        mask: url(#mask);
      }

      .st2 {
        fill: #d9d9d9;
      }
    </style>
    <mask id="mask" x="-1.1" y="-1.1" width="30.3" height="30.3" maskUnits="userSpaceOnUse">
      <g id="mask0_363_1719">
        <rect class="st2" x="-1.1" y="-1.1" width="30.3" height="30.3"/>
      </g>
    </mask>
  </defs>
  <g class="st1">
    <path class="st0" d="M24,25.4c-2.6,0-5.2-.6-7.8-1.7-2.6-1.1-4.9-2.8-7-4.9-2.1-2.1-3.7-4.4-4.9-7-1.1-2.6-1.7-5.2-1.7-7.8s.1-.7.4-.9.6-.4.9-.4h5.1c.3,0,.6,0,.8.3.2.2.4.4.4.7l.8,4.4c0,.3,0,.6,0,.9,0,.2-.2.4-.3.6l-3.1,3.1c.4.8.9,1.5,1.5,2.3.6.7,1.2,1.4,1.9,2.1.7.7,1.3,1.3,2,1.8.7.6,1.5,1.1,2.3,1.5l3-3c.2-.2.4-.3.7-.4.3,0,.6-.1.9,0l4.4.9c.3,0,.5.2.7.5.2.2.3.5.3.7v5.1c0,.4-.1.7-.4.9s-.6.4-.9.4ZM6.5,10.2l2.1-2.1-.5-3h-2.8c.1.9.3,1.7.4,2.6.2.8.5,1.7.8,2.5ZM17.8,21.5c.8.4,1.7.6,2.5.9.9.2,1.7.3,2.6.4v-2.8l-3-.6-2.1,2.1Z"/>
  </g>
</svg>