<?xml version="1.0" encoding="UTF-8"?>
<svg id="Layer_1" xmlns="http://www.w3.org/2000/svg" version="1.1" viewBox="0 0 50 50">
  <!-- Generator: Adobe Illustrator 29.5.0, SVG Export Plug-In . SVG Version: 2.1.0 Build 137)  -->
  <defs>
    <style>
      .st0 {
        fill: #e83337;
        stroke: #e83337;
        stroke-linecap: round;
        stroke-linejoin: round;
        stroke-width: .2px;
      }
    </style>
  </defs>
  <path class="st0" d="M8.1,42.5c0,.9-1.9,2.7-2.7,2.7h-3v-18.8h2.9c.9,0,2.9,1.8,2.9,2.7v3.3c.1.2.3.2.6.3h4.4c.4,0,1.2-1.1,1.8-1.3s1.4-.3,1.6-.5,1.5-2.6,1.5-2.7v-.2l-11-6.3c-1.7-1.4-.7-2.8,0-4.4-1.2-.7-1.4-1.8-.9-3.1s4.1-7.5,4.9-8.5,1.6-1,2.7-.7l33.4,19.2c1.3,1.3-.2,2-1.1,2.8.9.7,2.2.8,1.6,2.2s-3,5.3-4.2,7.3-.7,1.5-1.2,1.6c-.8,0-2.6-1.4-3.4-1.8-.9,1.3-1.6,2.2-3.4,1.7l-11.6-6.7c-.2,0-1.9,2.9-2,3.3-.2.6,0,1.2-.1,1.9-.5,3-3.8,4.7-6.5,3.5s-1-.8-1.6-.9c-.9,0-3.9,0-4.8,0s-.4,0-.6.3v3.3l-.2-.2ZM11.6,6.4l-4.8,8.5c-.2,1.3,1.8,2.1,2.8,2.7,7.3,4.4,14.8,8.7,22.2,12.8s3.2,1.9,3.7,1.9.5,0,.8-.2l10.3-7.1L13.2,5.8c-.7,0-1.2,0-1.6.6ZM34.9,33.3l-26.9-15.6c-.9,1.1-1.5,2.6,0,3.4l27.5,15.8c.6.2,1.2,0,1.6-.4l3.2-5.7c-1.9.6-3.3,3.1-5.4,2.6h0ZM46.6,28.7l-1.5-1.2-2.5,1.7-3.5,5.9c0,.2,0,.3.3.4.3.2,1.9,1.1,2.2,1.3s.3,0,.5,0l4.6-8.2h0ZM3.3,44.3c1.7.2,3.6-.4,3.8-2.4.4-3.9-.2-8.5,0-12.4-.5-1.7-2.1-2.2-3.7-2v16.8h0ZM17.6,30.9c1.4.3,2.7,1.1,3.4,2.5l1.6-2.7c-.5-.3-3.5-2.3-3.8-2.1l-1.2,2.3ZM15.4,39c5.3,2.1,7.2-6.2,2.1-7-4.4-.7-6,5.5-2.1,7ZM12.5,33.7h-4.2l-.2.2v3.8l.2.2h4.5c-.8-1.3-.8-2.8-.3-4.3h0Z"/>
</svg>