<?xml version="1.0" encoding="UTF-8"?>
<svg id="Layer_2" xmlns="http://www.w3.org/2000/svg" version="1.1" viewBox="0 0 50 50">
  <!-- Generator: Adobe Illustrator 29.5.0, SVG Export Plug-In . SVG Version: 2.1.0 Build 137)  -->
  <defs>
    <style>
      .st0 {
        fill: #e83337;
      }
    </style>
  </defs>
  <g id="Layer_1-2">
    <g>
      <path class="st0" d="M41.8,27.3h1.5c.6,0,1.4.8,1.5,1.4v16.4c-.1.9-.9,1.4-1.7,1.5-2.3-.1-4.8.2-7.2,0-1,0-1.7-.6-1.7-1.7v-15.9c0-.9.6-1.6,1.5-1.7h4.9c.1,0,.4-1.2.5-1.4h-15.6v1.4h3.3c.7,0,1.5.9,1.5,1.7v15.9c0,1-.7,1.7-1.7,1.7-2.4-.1-4.9.2-7.2,0-.9,0-1.6-.5-1.7-1.5v-16.4c0-.6.8-1.4,1.5-1.4h3.3v-1.4h-15.6l.5,1.4h4.8c.9,0,1.6.7,1.7,1.6v16c0,1-.8,1.5-1.7,1.6-2.3.2-4.9-.1-7.2,0-.9,0-1.5-.6-1.7-1.5v-16.3c0-.6.8-1.5,1.5-1.5h1.5c-.5-1.4-.8-2.9-1-4.4C5.8,6.8,24.6-2.9,36.8,7.9c5.4,4.8,7.5,12.6,5,19.5h0ZM24.5,4.5c-2.6.4-4.4,2.6-5.5,4.8,1.7.8,3.6,1,5.5,1.1v-6ZM25.5,4.5v6c1.9,0,3.8-.4,5.5-1.1-1.2-2.2-2.9-4.5-5.5-4.8h0ZM20.9,4.9c-2,.5-3.8,1.4-5.5,2.5.8.6,1.6,1,2.5,1.5.8-1.5,1.8-2.8,3-4h0ZM34.6,7.4c-1.7-1.1-3.5-2-5.5-2.5,1.2,1.1,2.2,2.5,3,4,.2,0,2.6-1.4,2.5-1.5ZM15.6,16.6c.3-2.3.9-4.6,1.9-6.7l-3-1.7c-2.7,2.1-4.7,5.1-5.7,8.4h6.7ZM41.1,16.6c-.5-1.8-1.3-3.5-2.4-5-.9-1.3-2-2.5-3.3-3.5-.9.6-1.9,1.2-2.9,1.7.2.5.4,1,.6,1.5.6,1.7,1,3.4,1.3,5.2h0c0,0,6.7,0,6.7,0h0ZM24.5,11.5c-2.1,0-4.1-.5-6-1.2-.9,2-1.4,4.1-1.8,6.3h7.8v-5.1h0ZM33.3,16.6c-.3-2.2-.9-4.3-1.8-6.3,0,0-.7.2-.8.3-1.7.5-3.4.9-5.2.9v5.1h7.8,0ZM15.5,17.7h-6.9c-.5,2.4-.5,4.9,0,7.2h6.9c0-.1-.2-2.1-.2-2.1v-3l.2-2.1ZM24.5,17.7h-7.9c-.2,1.6-.2,3.3-.2,4.9l.2,2.3h7.9v-7.2ZM33.4,17.7h-7.9v7.1h0c0,0,7.8,0,7.8,0,.3-2.4.3-4.8,0-7.2ZM34.6,17.7c.1,1.8.2,3.5.1,5.3l-.2,1.8h0c0,0,6.8,0,6.8,0,.1-.2.2-.6.2-.8.2-1.4.3-3,.2-4.5,0-.6-.2-1.2-.3-1.9h0c0,0-6.8,0-6.8,0h0ZM6.8,28.4c-.2,0-.4.2-.5.4,0,5.4,0,10.9,0,16.3,0,.2.2.3.4.3h7.6c.2-.1.4-.4.4-.6v-15.8c0-.5-.3-.6-.7-.7h-7.2s0,0,0,0ZM21.3,28.4c-.3,0-.5.2-.5.5v16.2c.1.2.3.3.5.3h7.4c.3,0,.5-.2.5-.5v-16.2c-.2-.3-.4-.3-.7-.4h-7.2s0,0,0,0ZM35.9,28.4c-.4,0-.6.3-.6.7v15.6c0,.3.1.7.5.8h7.6c.2,0,.3-.2.3-.4v-16.3c-.1-.3-.4-.4-.7-.4h-7.2Z"/>
      <path class="st0" d="M9.3,35c1.5-1.6,3.9.7,2.4,2.3s-3.8-.8-2.4-2.3ZM10.3,35.6c-.8.2-.3,1.5.5,1,.5-.4.1-1.1-.5-1Z"/>
      <path class="st0" d="M7.8,30.4h5.3c.5.1.6.8.2,1h-5.5c-.5-.1-.6-.9,0-1h0Z"/>
      <path class="st0" d="M7.8,42.5h5.4c.6.2.5,1-.1,1.1-1.6-.1-3.5.2-5.1,0-.7,0-.7-1-.2-1.1Z"/>
      <path class="st0" d="M7.8,32.8h5.4c.6.2.5,1-.1,1.1-1.6.2-3.5-.1-5.1,0-.6,0-.7-.8-.2-1.1h0Z"/>
      <path class="st0" d="M7.8,38.5h5.3c.6.1.6,1,0,1.1h-5.2c-.6,0-.6-.9,0-1.1h0Z"/>
      <path class="st0" d="M7.9,40.5h5.2c.6,0,.7.9,0,1.1h-5.3c-.6-.2-.5-1,0-1.1h0Z"/>
      <path class="st0" d="M39.2,34.6c2.3-.3,2.6,3,.5,3.2-2.2.2-2.4-3-.5-3.2ZM39.4,35.6c-.8.2-.4,1.4.4,1,.5-.3.3-1.2-.4-1Z"/>
      <path class="st0" d="M36.6,40.6c0,0,.3-.2.4-.2,1.6.1,3.5-.2,5,0,.7,0,.8.8.2,1.1h-5.4c-.4,0-.6-.6-.3-.9h0Z"/>
      <path class="st0" d="M36.6,30.6c.1-.1.3-.1.4-.2,1.6-.2,3.4.1,5.1,0,.7,0,.7,1,0,1.1h-5.3c-.4,0-.6-.6-.3-.9h0Z"/>
      <path class="st0" d="M36.8,38.5h5.3c.6.2.6.9,0,1.1h-5.3c-.6-.1-.6-.9,0-1.1h0Z"/>
      <path class="st0" d="M36.8,42.5h5.3c.6,0,.7,1,0,1.1-1.6.2-3.5-.1-5.1,0-.6,0-.7-.8-.2-1.1h0Z"/>
      <path class="st0" d="M36.8,32.8h5.3c.6,0,.7,1,0,1.1-1.6.2-3.5-.1-5.1,0-.6,0-.7-.8-.2-1.1h0Z"/>
      <path class="st0" d="M24.7,34.6c2.3-.4,2.6,3,.5,3.2-2.1.2-2.4-2.9-.5-3.2ZM24.9,35.6c-.8.2-.4,1.4.4,1,.5-.3.2-1.2-.4-1Z"/>
      <path class="st0" d="M22.1,39.4c-.3-.3,0-.8.3-.9h5.2c.7,0,.6,1,0,1.1h-5.2c-.1,0-.3,0-.3-.2h0Z"/>
      <path class="st0" d="M22.3,32.8h5.4c.5.2.5.8,0,1h-5.3c-.6,0-.7-.8-.2-1h0Z"/>
      <path class="st0" d="M22.4,30.4h5.3c.6.2.6.9,0,1.1h-5.3c-.6-.2-.6-.9,0-1.1Z"/>
      <path class="st0" d="M22.4,40.5h5.2c.6,0,.7.7.2,1h-5.5c-.6-.1-.5-.9,0-1Z"/>
      <path class="st0" d="M22.3,42.5h5.4c.6.2.5,1-.2,1.1-1.6.2-3.4-.1-5,0-.6,0-.8-.8-.2-1.1h0Z"/>
    </g>
  </g>
</svg>