<?xml version="1.0" encoding="UTF-8"?>
<svg id="Layer_1" xmlns="http://www.w3.org/2000/svg" version="1.1" xmlns:xlink="http://www.w3.org/1999/xlink" viewBox="0 0 28 28">
  <!-- Generator: Adobe Illustrator 29.5.0, SVG Export Plug-In . SVG Version: 2.1.0 Build 137)  -->
  <defs>
    <style>
      .st0 {
        fill: #e93038;
      }

      .st1 {
        mask: url(#mask);
      }

      .st2 {
        fill: #d9d9d9;
      }
    </style>
    <mask id="mask" x="-2" y="-2" width="32" height="32" maskUnits="userSpaceOnUse">
      <g id="mask0_363_1721">
        <rect class="st2" x="-2" y="-2" width="32" height="32"/>
      </g>
    </mask>
  </defs>
  <g class="st1">
    <path class="st0" d="M23.2,10l-9.2,5-9.2-5v-2l9.2,5,9.2-5M23.2,6H4.8c-1.3,0-2.3.9-2.3,2v12c0,.5.2,1,.7,1.4s1,.6,1.6.6h18.3c.6,0,1.2-.2,1.6-.6.4-.4.7-.9.7-1.4V8c0-.5-.2-1-.7-1.4-.4-.4-1-.6-1.6-.6Z"/>
  </g>
</svg>