<?xml version="1.0" encoding="UTF-8"?>
<svg id="Capa_1" xmlns="http://www.w3.org/2000/svg" version="1.1" viewBox="0 0 50 50">
  <!-- Generator: Adobe Illustrator 29.5.0, SVG Export Plug-In . SVG Version: 2.1.0 Build 137)  -->
  <defs>
    <style>
      .st0 {
        fill: #e83337;
        stroke: #e83337;
        stroke-miterlimit: 10;
        stroke-width: .2px;
      }
    </style>
  </defs>
  <path class="st0" d="M22.8,4.8c5.9-.8,11.5,1.8,14.3,7.1,4.6,8.6-.6,14.8-5.7,21.2s-5.8,7-6.3,7.1c-1.5-1-2.7-2.5-3.8-3.9-3.7-4.2-9.8-11.1-10.1-16.8s4.7-13.9,11.7-14.7ZM25.3,38.3c5.2-7.6,16.5-15.6,10.5-26.1s-17.9-8.1-22,1.1c-4.5,10.2,5.7,17.5,11,24.8l.6.2Z"/>
  <path class="st0" d="M12.8,39.5c-.2.2-.3.4-.3.6-.1.6.6,1.2,1,1.5,4,3,19.9,3.2,23.5-.4s-4.6-3.3-4.6-4.4l.5-.6c7,1.2,8.7,5.9.9,8.1s-16.9,1.6-21.3-1.6c-4.2-3.1,1.7-6.6,4.8-6.4l.2.8c-.2.6-3.9,1.4-4.7,2.4Z"/>
  <path class="st0" d="M23.6,12c9.3-1.6,10.7,11.7,2.8,12.9s-10.7-11.6-2.8-12.9ZM24.1,13.3c-6.5,1-5.1,11.1,1.5,10.3,6.8-.8,5.4-11.4-1.5-10.3Z"/>
</svg>