<?xml version="1.0" encoding="UTF-8"?>
<svg id="Layer_1" data-name="Layer 1" xmlns="http://www.w3.org/2000/svg" viewBox="0 0 28 28">
  <defs>
    <style>
      .cls-1 {
        fill: #e93038;
      }
    </style>
  </defs>
  <path class="cls-1" d="M18.83,2.06h-9.65c-3.93,0-7.11,3.19-7.12,7.12v9.65c0,3.93,3.19,7.11,7.12,7.12h9.65c3.93,0,7.11-3.19,7.12-7.12v-9.65c0-3.93-3.19-7.11-7.12-7.12ZM23.54,18.83c0,2.6-2.11,4.71-4.71,4.71h-9.65c-2.6,0-4.71-2.11-4.71-4.71h0v-9.65c0-2.6,2.11-4.71,4.71-4.71h9.65c2.6,0,4.71,2.11,4.71,4.71v9.65Z"/>
  <path class="cls-1" d="M14,7.83c-3.41,0-6.17,2.77-6.17,6.17s2.77,6.17,6.17,6.17,6.17-2.77,6.17-6.17-2.77-6.17-6.17-6.17ZM14,17.77c-2.08,0-3.77-1.69-3.77-3.77,0-2.08,1.69-3.77,3.77-3.77,2.08,0,3.77,1.69,3.77,3.77,0,2.08-1.69,3.77-3.77,3.77ZM20.19,6.39c.82,0,1.48.66,1.48,1.48,0,.82-.66,1.48-1.48,1.48-.82,0-1.48-.66-1.48-1.48,0-.82.55-1.48,1.48-1.48Z"/>
</svg>