<?xml version="1.0" encoding="UTF-8"?>
<svg id="Capa_1" data-name="Capa 1" xmlns="http://www.w3.org/2000/svg" viewBox="0 0 50 50">
  <defs>
    <style>
      .cls-1 {
        fill: #e83337;
        stroke: #e83337;
        stroke-miterlimit: 10;
        stroke-width: .25px;
      }
    </style>
  </defs>
  <path class="cls-1" d="M25.39,2.02c3.47.46,3.69,5.51.31,6.27-.13.2.08,2.46-.02,2.97-.13.69-1.24.68-1.36,0-.1-.51.11-2.77-.02-2.97-3.39-.77-3.19-5.81.31-6.27.19-.03.59-.03.78,0ZM24.58,3.51c-2.1.43-1.54,3.87.84,3.38,2.06-.43,1.53-3.87-.84-3.38Z"/>
  <path class="cls-1" d="M2.02,24.51c.08-.58.63-1.51,1.08-1.9,1.84-1.56,4.62-.6,5.19,1.69.2.13,2.46-.08,2.97.02.69.13.68,1.24,0,1.36-.51.1-2.77-.11-2.97.02-.79,3.36-5.8,3.19-6.27-.31-.03-.2-.03-.68,0-.88ZM5.03,23.26c-2.65.27-1.55,4.56.99,3.25,1.66-.85.83-3.43-.99-3.25Z"/>
  <path class="cls-1" d="M47.98,24.71c.02.18.02.51,0,.68-.46,3.45-5.53,3.71-6.27.31-.2-.13-2.46.08-2.97-.02-.69-.13-.68-1.24,0-1.36.51-.1,2.77.11,2.97-.02.46-1.89,2.44-2.93,4.27-2.24,1.05.39,1.88,1.54,2,2.65ZM44.64,23.26c-2.65.27-1.55,4.56.99,3.25,1.66-.85.83-3.43-.99-3.25Z"/>
  <path class="cls-1" d="M24.61,47.98c-3.49-.46-3.7-5.5-.31-6.27.13-.2-.08-2.46.02-2.97.13-.69,1.24-.68,1.36,0,.1.51-.11,2.77.02,2.97,1.93.5,3.03,2.63,2.16,4.48-.45.94-1.52,1.68-2.56,1.79-.18.02-.51.02-.68,0ZM24.58,43.12c-2.1.43-1.54,3.87.84,3.38,2.06-.43,1.53-3.87-.84-3.38Z"/>
  <path class="cls-1" d="M24.4,13.29c8.43-.47,14.58,8.05,11.54,15.94-3.34,8.65-15.15,10.16-20.5,2.55-5.33-7.58-.24-17.97,8.96-18.49ZM24.32,14.93c-1.43.34-2.25,1.95-2.82,3.18.03.25,2.43.7,2.82.63v-3.81ZM25.69,18.74c.39.06,2.8-.38,2.82-.63-.58-1.23-1.39-2.84-2.82-3.18v3.81ZM21.38,15.42c-.15-.12-2.14.98-2.35,1.22-.07.08-.13.11-.09.25l1.27.69,1.18-2.15ZM31.07,16.88c.03-.14-.02-.16-.09-.25-.21-.24-2.2-1.34-2.35-1.22l1.18,2.15,1.27-.69ZM14.73,24.32h3.96c.28-.32.11-.89.15-1.32.12-1.39.45-2.75.79-4.09l-1.9-1.13c-1.76,1.69-2.84,4.09-3,6.54ZM35.27,24.32c-.21-2.44-1.21-4.85-3-6.54l-1.9,1.13.94,5.41h3.96ZM24.32,20.21c-1.14-.08-2.23-.36-3.33-.64-.51,1.53-.7,3.15-.78,4.75h3.96l.15-.15v-3.96ZM25.69,20.21v3.96l.15.15h3.81c.05,0,.16-.17.15-.25-.16-1.52-.28-3.05-.78-4.5-1.1.28-2.19.57-3.33.64ZM18.69,25.69h-3.96c.18,2.41,1.2,4.97,3.06,6.54l1.83-1.12c-.35-1.38-.67-2.77-.79-4.19-.02-.27.1-1.15-.15-1.22ZM24.32,29.79v-3.96l-.15-.15h-3.96c.11,1.6.24,3.23.78,4.75,1.1-.29,2.19-.57,3.33-.64ZM25.69,29.79c1.14.08,2.23.36,3.33.64.18-.14.62-2.74.67-3.15.02-.22.19-1.6-.04-1.6h-3.81l-.15.15v3.96ZM35.27,25.69h-3.96l-.94,5.41,1.83,1.12c1.86-1.61,2.86-4.1,3.06-6.54ZM24.32,31.26c-.37-.07-2.82.39-2.83.63.59,1.23,1.37,2.84,2.83,3.18v-3.81ZM25.69,35.07c1.45-.35,2.24-1.93,2.83-3.18-.01-.24-2.47-.71-2.83-.63v3.81ZM21.38,34.58l-1.18-2.15-1.27.69c-.04.15.02.16.1.24.22.22,2.2,1.34,2.34,1.23ZM31.07,33.12l-1.27-.69-1.18,2.15c.14.11,2.12-1.01,2.34-1.23.08-.08.14-.09.1-.24Z"/>
  <path class="cls-1" d="M34.83,34.14c.66,0,1.93,1.73,2.49,2.16,1.35-.76,3.03-.58,4.06.63,1.74,2.04.35,5.23-2.35,5.23-2.52,0-3.98-2.62-2.72-4.79-.02-.24-2-1.75-2.14-2.33-.11-.43.21-.9.66-.9ZM38.47,37.34c-.34.08-.89.59-1.04.92-.77,1.75,1.43,3.29,2.78,1.99,1.31-1.25.08-3.32-1.74-2.91Z"/>
  <path class="cls-1" d="M15.18,34.14c.53.02.72.48.61.96-.12.52-1.71,1.7-2.09,2.22,1.66,2.88-1.53,6.11-4.38,4.38-3.47-2.1-.3-7.57,3.36-5.41.63-.46,1.39-1.63,2-2.01.14-.08.34-.15.49-.15ZM10.5,37.35c-.31.06-.89.55-1.04.82-.85,1.53.92,3.25,2.46,2.27s.67-3.52-1.43-3.09Z"/>
  <path class="cls-1" d="M10.97,7.85c2.49-.03,3.99,2.66,2.72,4.79.02.21,1.88,1.7,2.05,2.13.33.8-.36,1.39-1.05.96-.61-.38-1.37-1.55-2-2.01-1.12.56-2.21.66-3.32,0-2.66-1.59-1.64-5.82,1.61-5.85ZM10.7,9.28c-2.13.36-1.83,3.81.74,3.38,1.99-.34,1.51-3.75-.74-3.38Z"/>
  <path class="cls-1" d="M39.04,7.85c2.41.03,3.89,2.6,2.71,4.7-.91,1.62-2.81,2.03-4.42,1.15-.63.46-1.39,1.63-2,2.01-.72.45-1.48-.24-1.02-1.02.23-.39,2.01-1.91,2.02-2.07-1.31-2.12.23-4.81,2.71-4.79ZM38.67,9.28c-.54.09-1.25.75-1.34,1.3-.35,2.24,2.38,2.87,3.23,1.17.64-1.29-.5-2.7-1.89-2.47Z"/>
</svg>