<?xml version="1.0" encoding="UTF-8"?>
<svg id="Layer_1" xmlns="http://www.w3.org/2000/svg" version="1.1" viewBox="0 0 40 40">
  <!-- Generator: Adobe Illustrator 29.5.0, SVG Export Plug-In . SVG Version: 2.1.0 Build 137)  -->
  <defs>
    <style>
      .st0 {
        fill: #e93038;
      }
    </style>
  </defs>
  <path class="st0" d="M10.9,14.5v20.5H3.8V14.5h7.2ZM11.4,8.2c0,1-.4,1.8-1.1,2.5-.7.7-1.7,1-2.9,1h0c-1.2,0-2.1-.3-2.9-1-.7-.7-1.1-1.5-1.1-2.5s.4-1.9,1.1-2.5c.7-.7,1.7-1,2.9-1s2.2.3,2.9,1c.7.7,1.1,1.5,1.1,2.5ZM36.6,23.3v11.7h-7.1v-10.9c0-1.4-.3-2.6-.9-3.4-.6-.8-1.5-1.2-2.7-1.2s-1.7.2-2.3.7c-.6.5-1.1,1.1-1.4,1.8-.2.4-.2,1-.2,1.7v11.4h-7.1c0-5.5,0-9.9,0-13.4s0-5.5,0-6.1v-1s7.1,0,7.1,0v3h0c.3-.4.6-.8.9-1.2s.7-.7,1.2-1.1c.5-.4,1.1-.7,1.9-.9.7-.2,1.6-.3,2.5-.3,2.5,0,4.5.8,6,2.3,1.5,1.6,2.3,3.9,2.3,6.9Z"/>
</svg>