<?xml version="1.0" encoding="UTF-8"?>
<svg id="Layer_1" xmlns="http://www.w3.org/2000/svg" version="1.1" xmlns:xlink="http://www.w3.org/1999/xlink" viewBox="0 0 28 28">
  <!-- Generator: Adobe Illustrator 29.5.0, SVG Export Plug-In . SVG Version: 2.1.0 Build 137)  -->
  <defs>
    <style>
      .st0 {
        fill: #e93038;
      }

      .st1 {
        mask: url(#mask);
      }

      .st2 {
        fill: #d9d9d9;
      }
    </style>
    <mask id="mask" x="-2.7" y="-2.7" width="33.4" height="33.4" maskUnits="userSpaceOnUse">
      <g id="mask0_363_1718">
        <rect class="st2" x="-2.7" y="-2.7" width="33.4" height="33.4"/>
      </g>
    </mask>
  </defs>
  <g class="st1">
    <path class="st0" d="M22.3,10.3c0-2-.9-3.9-2.4-5.2-1.6-1.4-3.7-2.2-5.9-2.2s-4.3.8-5.9,2.2c-1.6,1.4-2.4,3.3-2.4,5.2,0,7.1,8.3,14.8,8.3,14.8,0,0,8.3-7.7,8.3-14.8ZM9.5,10.4c0-.5.1-1,.3-1.5.2-.5.6-.9,1-1.3.4-.4.9-.7,1.5-.9.5-.2,1.1-.3,1.7-.3,1.2,0,2.3.4,3.2,1.2.8.8,1.3,1.8,1.3,2.8s-.5,2.1-1.3,2.8c-.8.8-2,1.2-3.2,1.2s-2.3-.4-3.2-1.2c-.8-.8-1.3-1.8-1.3-2.8Z"/>
  </g>
</svg>