<?xml version="1.0" encoding="UTF-8"?>
<svg id="Layer_1" xmlns="http://www.w3.org/2000/svg" version="1.1" xmlns:serif="http://www.serif.com/" viewBox="0 0 50 50">
  <!-- Generator: Adobe Illustrator 29.5.0, SVG Export Plug-In . SVG Version: 2.1.0 Build 137)  -->
  <defs>
    <style>
      .st0 {
        fill: #e83337;
        fill-rule: evenodd;
      }
    </style>
  </defs>
  <path class="st0" d="M25,1c-4.5,0-8.5,1-11,2.4-2,1.1-3,2.6-3,4.1s1.1,3,3,4.1c2.5,1.4,6.5,2.4,11,2.4s8.5-1,11-2.4c2-1.1,3-2.6,3-4.1s-1.1-3-3-4.1c-2.5-1.4-6.5-2.4-11-2.4ZM25,3c4.1,0,7.7.8,10,2.1,1.2.7,2,1.5,2,2.4s-.8,1.7-2,2.4c-2.3,1.3-5.9,2.1-10,2.1s-7.7-.8-10-2.1c-1.2-.7-2-1.5-2-2.4s.8-1.7,2-2.4c2.3-1.3,5.9-2.1,10-2.1Z"/>
  <path class="st0" d="M37,23.5h0c0-.6.4-1,1-1s1,.4,1,1v8c0,1.5-1.1,3-3,4.1-2.5,1.4-6.5,2.4-11,2.4s-8.5-1-11-2.4c-2-1.1-3-2.6-3-4.1v-8c0-.5.5-1,1-1s1,.4,1,1c0,.9.8,1.7,2,2.4,2.3,1.3,5.9,2.1,10,2.1s7.7-.8,10-2.1c1.2-.7,2-1.5,2-2.4ZM13,26.9c.3.2.6.5,1,.7,2.5,1.4,6.5,2.4,11,2.4s8.5-1,11-2.4c.4-.2.7-.4,1-.7v4.6c0,.9-.8,1.7-2,2.4-2.3,1.3-5.9,2.1-10,2.1s-7.7-.8-10-2.1c-1.2-.7-2-1.5-2-2.4v-4.6Z"/>
  <path class="st0" d="M37,15.5h0c0-.6.4-1,1-1s1,.4,1,1v8c0,1.5-1.1,3-3,4.1-2.5,1.4-6.5,2.4-11,2.4s-8.5-1-11-2.4c-2-1.1-3-2.6-3-4.1v-8c0-.5.5-1,1-1s1,.4,1,1c0,.9.8,1.7,2,2.4,2.3,1.3,5.9,2.1,10,2.1s7.7-.8,10-2.1c1.2-.7,2-1.5,2-2.4ZM13,18.9c.3.2.6.5,1,.7,2.5,1.4,6.5,2.4,11,2.4s8.5-1,11-2.4c.4-.2.7-.4,1-.7v4.6c0,.9-.8,1.7-2,2.4-2.3,1.3-5.9,2.1-10,2.1s-7.7-.8-10-2.1c-1.2-.7-2-1.5-2-2.4v-4.6Z"/>
  <path class="st0" d="M37,7.5h0c0-.6.4-1,1-1s1,.4,1,1v8c0,1.5-1.1,3-3,4.1-2.5,1.4-6.5,2.4-11,2.4s-8.5-1-11-2.4c-2-1.1-3-2.6-3-4.1V7.5c0-.5.5-1,1-1s1,.4,1,1c0,.9.8,1.7,2,2.4,2.3,1.3,5.9,2.1,10,2.1s7.7-.8,10-2.1c1.2-.7,2-1.5,2-2.4ZM13,10.9c.3.2.6.5,1,.7,2.5,1.4,6.5,2.4,11,2.4s8.5-1,11-2.4c.4-.2.7-.4,1-.7v4.6c0,.9-.8,1.7-2,2.4-2.3,1.3-5.9,2.1-10,2.1s-7.7-.8-10-2.1c-1.2-.7-2-1.5-2-2.4v-4.6Z"/>
  <path class="st0" d="M11,46h11c.6,0,1-.4,1-1s-.4-1-1-1h-11c-.6,0-1,.4-1,1s.4,1,1,1Z"/>
  <path class="st0" d="M28,46h11c.6,0,1-.4,1-1s-.4-1-1-1h-11c-.6,0-1,.4-1,1s.4,1,1,1Z"/>
  <path class="st0" d="M25,41c-2.2,0-4,1.8-4,4s1.8,4,4,4,4-1.8,4-4-1.8-4-4-4ZM25,43c1.1,0,2,.9,2,2s-.9,2-2,2-2-.9-2-2,.9-2,2-2Z"/>
  <path class="st0" d="M8,41c-2.2,0-4,1.8-4,4s1.8,4,4,4,4-1.8,4-4-1.8-4-4-4ZM8,43c1.1,0,2,.9,2,2s-.9,2-2,2-2-.9-2-2,.9-2,2-2Z"/>
  <path class="st0" d="M42,41c-2.2,0-4,1.8-4,4s1.8,4,4,4,4-1.8,4-4-1.8-4-4-4ZM42,43c1.1,0,2,.9,2,2s-.9,2-2,2-2-.9-2-2,.9-2,2-2Z"/>
  <path class="st0" d="M26,42v-5c0-.6-.4-1-1-1s-1,.4-1,1v5c0,.6.4,1,1,1s1-.4,1-1Z"/>
</svg>