<?xml version="1.0" encoding="UTF-8"?>
<svg id="Layer_1" xmlns="http://www.w3.org/2000/svg" version="1.1" xmlns:xlink="http://www.w3.org/1999/xlink" viewBox="0 0 45 40">
  <!-- Generator: Adobe Illustrator 29.5.0, SVG Export Plug-In . SVG Version: 2.1.0 Build 137)  -->
  <defs>
    <style>
      .st0 {
        fill: #e93038;
      }

      .st1 {
        fill: none;
      }

      .st2 {
        clip-path: url(#clippath);
      }
    </style>
    <clipPath id="clippath">
      <rect class="st1" x="3" y=".5" width="38.9" height="38.9"/>
    </clipPath>
  </defs>
  <g class="st2">
    <path class="st0" d="M18.5,25l10.5-5.4-10.5-5.5v10.9ZM22.5,6.3c2.4,0,4.8,0,7.1,0s3.9.1,5,.2h1.6c0,0,.1,0,.4.1.2,0,.4,0,.5,0,.1,0,.3,0,.5,0,.2,0,.4.1.6.2s.4.2.6.3c.2.1.5.3.7.4.2.2.4.4.6.6,0,0,.2.2.3.4.1.2.3.6.6,1.3.3.7.5,1.4.6,2.2.1.9.2,1.9.3,3,0,1.1.1,1.9.1,2.5v3.8c0,2.1-.1,4.2-.4,6.3-.1.8-.3,1.5-.5,2.2-.3.6-.5,1.1-.7,1.3l-.3.4c-.2.2-.4.4-.6.6-.2.2-.4.3-.7.4-.2.1-.4.2-.6.3-.2,0-.4.1-.6.2-.2,0-.4,0-.5,0-.1,0-.3,0-.5,0-.2,0-.3,0-.4,0-3.6.3-8.2.4-13.6.4-3,0-5.6,0-7.8-.1-2.2,0-3.7-.1-4.4-.2h-1.1c0,0-.8-.2-.8-.2-.5,0-.9-.1-1.2-.2-.3,0-.6-.2-1.1-.5-.5-.2-.9-.5-1.2-.9,0,0-.2-.2-.3-.4s-.3-.6-.6-1.3c-.3-.7-.5-1.4-.6-2.2-.1-.9-.2-1.9-.3-3,0-1.1-.1-1.9-.1-2.5v-3.8c0-2.1.1-4.2.4-6.3.1-.8.3-1.5.5-2.2.3-.6.5-1.1.7-1.3l.3-.4c.2-.2.4-.4.6-.6s.4-.3.7-.4c.2-.1.4-.2.6-.3s.4-.1.6-.2c.2,0,.4,0,.5,0,.1,0,.3,0,.5,0,.2,0,.4,0,.4,0,3.6-.3,8.2-.4,13.6-.4Z"/>
  </g>
</svg>