<svg width="78" height="76" viewBox="0 0 78 76" fill="none" xmlns="http://www.w3.org/2000/svg">
<rect width="78" height="76" rx="8" fill="#F2F2F2"/>
<g clip-path="url(#clip0_1357_1744)">
<path d="M60 25.5H51.25V18.5C51.2489 17.5721 50.8798 16.6824 50.2237 16.0263C49.5676 15.3702 48.6779 15.0011 47.75 15H30.25C29.3221 15.0011 28.4325 15.3702 27.7763 16.0263C27.1202 16.6824 26.7511 17.5721 26.75 18.5V25.5H18C17.0721 25.5011 16.1824 25.8702 15.5263 26.5263C14.8702 27.1825 14.5011 28.0721 14.5 29V57C14.5011 57.9279 14.8702 58.8176 15.5263 59.4737C16.1824 60.1298 17.0721 60.4989 18 60.5H60C60.9279 60.4989 61.8176 60.1298 62.4737 59.4737C63.1298 58.8176 63.4989 57.9279 63.5 57V29C63.4989 28.0721 63.1298 27.1825 62.4737 26.5263C61.8176 25.8702 60.9279 25.5011 60 25.5ZM18 57V29H26.75V32.5H23.25V36H26.75V39.5H23.25V43H26.75V46.5H23.25V50H26.75V57H18ZM47.75 57H30.25V18.5H47.75V57ZM60 57H51.25V50H54.75V46.5H51.25V43H54.75V39.5H51.25V36H54.75V32.5H51.25V29H60V57Z" fill="#FF8350"/>
<path d="M42.5 22H35.5V25.5H42.5V22Z" fill="#FF8350"/>
<path d="M42.5 29H35.5V32.5H42.5V29Z" fill="#FF8350"/>
<path d="M42.5 36H35.5V39.5H42.5V36Z" fill="#FF8350"/>
</g>
<defs>
<clipPath id="clip0_1357_1744">
<rect width="56" height="56" fill="white" transform="translate(11 10)"/>
</clipPath>
</defs>
</svg>
