<svg width="78" height="76" viewBox="0 0 78 76" fill="none" xmlns="http://www.w3.org/2000/svg">
<rect width="78" height="76" rx="8" fill="#F2F2F2"/>
<g clip-path="url(#clip0_1357_1745)">
<path d="M51.0271 18.2402C50.847 18.4285 50.7536 19.2285 50.6134 19.5769C48.228 25.4954 43.0116 30.6005 38.7211 35.204V35.6974L39.0814 36.0224L56.3402 18.9518C56.437 18.3068 56.1184 17.8985 56.1985 17.1618C56.482 14.5367 59.8584 13.3833 61.7468 15.1984C63.6818 17.0584 62.5191 20.4636 59.8684 20.8286C59.2495 20.9136 58.3521 20.5069 58.0735 20.6836L40.9881 37.9275C41.205 38.2591 41.4119 38.4675 41.8089 38.2875C42.1775 38.1191 43.8073 36.2374 44.3128 35.779C47.5874 32.804 52.1548 28.7938 56.1234 26.9121C56.7773 26.6021 58.1502 26.2754 58.5589 26.0121C58.8992 25.7937 59.1728 25.107 59.5114 24.797C61.0878 23.3536 63.867 23.9187 64.6978 25.9137C66.3743 29.9372 60.5607 32.4456 58.7274 28.5171C52.7554 30.8989 47.9544 35.8207 43.3252 40.1359C43.2852 40.3692 43.7139 40.8209 43.9775 40.6225C46.9668 37.8974 50.5617 35.0757 54.7388 34.7307C54.9724 34.7107 55.2309 34.9174 55.5362 34.8407C55.7931 34.7757 56.2585 34.109 56.6005 33.8907C59.3079 32.1506 62.5875 34.9057 61.3347 37.9541C60.1253 40.8942 55.688 40.3309 55.1342 37.2208C51.3641 37.1758 48.5049 40.1359 45.6723 42.2193C45.317 42.8309 47.494 43.8876 47.494 44.9477C47.494 46.0077 44.925 47.7261 44.3278 48.6378C44.2394 49.1461 46.413 49.9378 45.4655 51.4312L33.2912 63.5949C32.0835 64.655 30.4937 63.4299 31.3945 62.0399L42.7364 50.5329L26.3834 34.2023L14.9481 45.611C13.3467 46.6194 12.2574 44.586 13.6152 43.4476L25.576 31.5639C26.8705 30.5539 27.3376 32.1906 28.3618 32.6906C28.6504 32.6406 30.6789 30.2489 31.221 29.8689C32.699 28.8372 33.368 30.5989 34.4139 31.3572C35.0194 31.4622 37.9287 27.2071 38.3391 26.4804C39.1248 25.0937 39.9005 23.5237 39.7887 21.8903C36.9996 21.3403 36.1171 17.5668 38.4892 15.9617C41.4219 13.9767 44.91 17.2835 43.1834 20.3186C42.9432 20.7402 42.2726 21.1769 42.1825 21.4836C42.0274 22.0136 42.1926 22.917 42.1058 23.5737C41.7121 26.5238 38.9563 29.9839 37.1397 32.2789C36.9478 32.5206 36.4791 32.8456 36.384 33.0356C36.2439 33.3156 36.5708 33.659 36.7493 33.689C36.9745 33.7273 37.7052 32.9073 37.897 32.7023C41.9323 28.4088 46.1778 23.762 48.4965 18.2968C46.4864 17.4085 45.8375 14.92 47.2337 13.1967C49.9845 9.79988 55.6646 14.3434 51.6477 17.9435C51.4792 18.0951 51.1473 18.1185 51.0305 18.2385L51.0271 18.2402ZM49.761 14.4034C48.9336 14.4817 48.64 15.7617 49.4357 16.0017C51.0372 16.4851 50.852 14.3017 49.761 14.4034ZM58.8675 16.9084C58.3354 17.4418 58.6974 18.6335 59.7083 18.3385C61.0561 17.9435 59.7817 15.9917 58.8675 16.9084ZM40.0973 17.8985C39.0898 18.1935 39.5452 19.5769 40.3693 19.5002C41.4869 19.3952 41.4135 17.5135 40.0973 17.8985ZM61.6183 26.3954C60.4973 26.5654 60.7626 28.1988 61.9036 28.0388C62.8294 27.9088 62.7293 26.2271 61.6183 26.3954ZM38.4175 42.7609C39.7654 44.096 40.9631 45.6194 42.4194 46.8577C42.5712 46.8844 44.3028 45.2377 44.4079 45.0343C44.4746 44.906 44.5196 44.8293 44.4079 44.7043L31.9717 32.6089C31.8599 32.6656 30.2652 34.259 30.2085 34.3707C30.1417 34.499 30.0984 34.5757 30.2085 34.7007C32.8992 37.4258 35.6967 40.0659 38.4175 42.7609ZM57.9384 35.8941C57.141 36.1724 57.598 37.7091 58.4989 37.4674C59.6599 37.1558 59.2429 35.439 57.9384 35.8941Z" fill="#EF492A"/>
</g>
<defs>
<clipPath id="clip0_1357_1745">
<rect width="52" height="52" fill="white" transform="translate(13 12)"/>
</clipPath>
</defs>
</svg>
