<svg width="78" height="76" viewBox="0 0 78 76" fill="none" xmlns="http://www.w3.org/2000/svg">
<rect width="78" height="76" rx="8" fill="#F2F2F2"/>
<g clip-path="url(#clip0_1357_1746)">
<path d="M55.4564 26.2374C56.2538 26.7973 60.7156 30.5839 60.7177 31.2863C60.7177 31.6364 60.5522 31.6197 60.3309 31.7601C59.8451 32.0705 56.8448 33.6744 56.4988 33.708L56.2345 33.6556C55.5317 32.863 54.6741 31.8566 53.8703 31.1835C40.356 19.8635 17.9805 28.0658 16.2182 45.5459C16.0205 47.5105 17.0779 51.7899 14.1163 52.1086C10.8817 52.4545 10.901 49.3367 11.0493 47.0031C12.4291 25.4512 37.2354 13.4686 55.4564 26.2374Z" fill="#E43337"/>
<path d="M64.3583 31.8104C64.6076 32.0159 63.4686 33.0076 63.288 33.1753C62.4778 33.9301 61.4741 34.7646 60.6208 35.511C55.6905 39.8197 50.3669 44.0278 45.4302 48.4623C45.2582 53.3434 40.386 56.6625 35.7888 54.1255C30.2975 51.0958 32.8186 42.0234 40.156 42.948C41.9055 43.1682 41.164 43.8202 43.1241 42.904C48.2972 40.4865 53.8422 37.0228 58.9445 34.3495C60.2404 33.6701 62.1317 32.5212 63.3804 32.0117C63.7179 31.8733 63.9543 31.7307 64.3583 31.8146V31.8104ZM40.8094 47.2358C38.4022 44.8476 35.4234 47.7411 36.9021 50.3221C38.4861 53.0834 43.6205 50.0265 40.8094 47.2358Z" fill="#E43337"/>
<path d="M66.4206 51.2322C65.6383 52.4902 62.6831 52.3686 62.1652 50.8296C61.7783 49.6786 62.1093 48.4142 61.9932 47.2233C61.7031 44.2544 60.9487 41.3316 59.6914 38.6227C60.2524 38.1383 62.9797 35.4336 63.4246 35.3959C63.7513 35.3686 63.7534 35.5133 63.8845 35.7334C65.7608 38.9141 67.2996 45.9213 66.9493 49.5402C66.8956 50.0853 66.7064 50.773 66.4206 51.2343V51.2322Z" fill="#E43337"/>
</g>
<defs>
<clipPath id="clip0_1357_1746">
<rect width="56" height="34" fill="white" transform="translate(11 21)"/>
</clipPath>
</defs>
</svg>
