<svg width="78" height="76" viewBox="0 0 78 76" fill="none" xmlns="http://www.w3.org/2000/svg">
<rect width="78" height="76" rx="8" fill="#F2F2F2"/>
<g clip-path="url(#clip0_1357_1749)">
<path d="M11.9928 51.2979C10.981 51.0929 10 49.6235 10.0074 48.6076L10 20.1202C10.137 18.3862 10.8955 17.2758 12.7234 17.1392C16.5117 16.8557 20.6697 17.3528 24.4993 17.1581C25.5229 17.3252 26.2888 18.0083 26.6571 18.9531L26.7926 48.6061C26.6747 49.4971 26.5112 50.2165 25.7542 50.779C25.6467 50.8589 24.8601 51.2964 24.8071 51.2964H19.1364V57.5447H38.2812V51.2964H32.6105C32.556 51.2964 31.7607 50.856 31.6605 50.7804C30.9255 50.2194 30.6869 49.3488 30.6162 48.468C31.1155 39.2082 29.9711 29.3015 30.6162 20.1173C30.7252 18.5519 31.2894 17.4924 32.9184 17.1581C36.7479 17.3499 40.9015 16.8587 44.6942 17.1392C46.5722 17.2772 47.2777 18.3586 47.4176 20.1187C47.073 29.0385 47.8595 38.2707 47.4103 47.1527C47.3808 47.75 47.3396 48.7907 47.2556 49.3256C47.1378 50.0813 46.0449 51.2964 45.276 51.2964H39.7527V57.5447H58.8975V51.2964H53.2268C52.3239 51.2964 51.1706 49.6424 51.2398 48.7514L51.2325 19.6827C51.3208 18.3746 52.318 17.2496 53.6613 17.1377C57.4216 17.504 62.0819 16.6683 65.7317 17.1581C67.2842 17.3659 67.9573 18.6929 67.9971 20.1245C68.0044 20.3731 67.8689 20.671 67.8719 20.9893C67.9794 30.5718 67.9249 40.2241 67.7393 49.7776C67.5625 50.4316 66.3754 51.2964 65.7435 51.2964H60.5883L60.3674 51.5144V58.9982H17.6635V51.2964H11.9928V51.2979ZM25.3211 23.5401V19.5432C25.3211 19.11 24.6819 18.6493 24.2194 18.5955C20.6329 18.1784 16.2481 18.9196 12.5746 18.5912C12.1504 18.5214 11.4773 19.3847 11.4773 19.6885V23.3221L11.6983 23.5401H25.3211ZM32.0965 23.5401H45.7194L45.9403 23.3221V19.6885C45.9403 19.3295 45.1818 18.4298 44.6972 18.5897C41.065 18.9138 36.7465 18.1871 33.1982 18.5955C32.6429 18.6595 32.0965 19.1522 32.0965 19.6885V23.5401ZM66.558 23.5401C66.0926 22.4602 66.7628 19.9676 66.2708 19.0999C66.206 18.9865 65.8481 18.6653 65.717 18.6289L53.8145 18.5955C53.349 18.5301 52.7127 19.1464 52.7127 19.5432V23.5401H66.5566H66.558ZM25.3211 24.9935H11.4773V28.4091L11.6983 28.6271H25.1002L25.3211 28.4091V24.9935ZM45.9403 24.9935H32.0965V28.4091L32.3174 28.6271H45.7194L45.9403 28.4091V24.9935ZM66.4107 28.6257V25.3555C66.4107 25.3191 66.53 25.2697 66.5256 25.2101L66.3371 24.9921H52.7142V28.4077L52.9351 28.6257H66.4107ZM25.3211 30.0791H11.6983L11.4773 30.2971V33.3494L11.6983 33.5674H25.3211V30.0791ZM45.9403 30.0791H32.0965V33.5674H45.9403V30.0791ZM66.4107 30.0791H52.7142V33.5674H66.4107V30.0791ZM19.1364 49.8444H24.5125C24.7688 49.8444 25.3226 49.1468 25.3226 48.8997V35.2388L25.1017 35.0208H11.6246C11.5569 35.2868 11.4921 35.5339 11.47 35.8129C11.2107 39.057 11.1931 44.9463 11.4714 48.1773C11.5083 48.6119 11.7174 49.843 12.2859 49.843H17.662V45.9187H14.8635V39.0163L15.0845 38.7983H21.932V45.9187H19.1335V49.843L19.1364 49.8444ZM39.7541 49.8444H44.9829C45.0728 49.8444 45.6605 49.391 45.7179 49.2616C45.743 49.2049 45.9403 48.0901 45.9403 48.0276V35.2388L45.7194 35.0208H32.3174L32.0965 35.2388V48.7543C32.0965 48.9884 32.612 49.8444 32.9066 49.8444H38.2827V45.9201H35.4842V38.7998H42.3317L42.5526 39.0178V45.9201H39.7541V49.8444ZM66.4107 35.0208H52.9351L52.7142 35.2388V49.045C52.7142 49.1133 53.3549 49.8444 53.5243 49.8444H58.9004V45.9201H56.1019V38.7998H62.9494L63.1703 39.0178V45.9201H60.3718V49.8444H65.6006C65.7744 49.8444 66.4107 49.2151 66.4107 49.045V35.0208ZM20.462 40.2517H16.5588L16.3379 40.4698V44.4667H20.462V40.2517ZM41.0797 40.2517H36.9556V44.4667H41.0797V40.2517ZM61.6974 40.2517H57.5733V44.4667H61.6974V40.2517Z" fill="#68B440"/>
</g>
<defs>
<clipPath id="clip0_1357_1749">
<rect width="58" height="42" fill="white" transform="translate(10 17)"/>
</clipPath>
</defs>
</svg>
