<svg width="78" height="76" viewBox="0 0 78 76" fill="none" xmlns="http://www.w3.org/2000/svg">
<rect width="78" height="76" rx="8" fill="#F2F2F2"/>
<g clip-path="url(#clip0_1357_1747)">
<path d="M10 24.9217C10.1903 24.4353 11.4638 22.9585 11.926 22.9585H17.704V24.4854H12.6058C12.5423 24.4854 11.9872 24.8235 11.926 24.9217L11.8014 55.7939L12.2636 56.6577L65.8678 56.5683L66.1964 55.7939L66.0717 24.9217C66.0105 24.8235 65.4554 24.4854 65.392 24.4854H60.2937V22.9585H66.0717C66.6835 22.9585 67.787 24.3589 67.9977 24.9217V56.5465C67.5763 57.142 66.6813 58.5097 65.8451 58.5097H39.903V60.2548H48.1735C48.8668 60.2548 49.1999 61.4959 48.5156 61.8929L29.822 61.9998C28.7163 61.7991 29.038 60.2548 29.822 60.2548H38.0925V58.5097H12.1526C11.4275 58.5097 10.2878 57.1813 10 56.5465V24.9217Z" fill="#2255A5"/>
<path d="M41.0371 33.211C41.4382 32.6853 41.3362 31.8149 42.0545 31.6819L55.4278 31.6884L56.5585 31.25L56.5517 16.4191C56.5018 16.3166 56.1416 15.9807 56.103 15.9807H21.5527L21.3261 30.9206C22.1781 32.3733 23.8707 30.8464 24.2718 33.2088C22.1147 33.296 19.8941 33.4662 19.5338 30.9009C19.1418 28.1132 19.1758 19.5886 19.5134 16.7442C19.7174 15.0187 20.8639 14.3403 22.5633 14.2269C33.281 13.5071 44.8529 14.7919 55.6589 14.2269C57.2043 14.2465 58.31 15.2892 58.4822 16.7442C58.8584 19.918 58.7904 27.2494 58.4913 30.493C58.4369 31.0842 58.2874 31.8607 57.9112 32.3341C57.7435 32.5435 56.7012 33.211 56.5562 33.211H41.0371Z" fill="#2255A5"/>
<path d="M35.0869 45.6927C36.4034 45.4614 41.1278 45.4745 42.5167 45.6359C44.5062 45.8693 45.9926 47.6406 46.2237 49.4816C46.507 51.7262 46.5614 54.6972 43.6429 55.02C41.6104 55.2447 36.3875 55.2425 34.355 55.02C31.3822 54.6928 31.4705 51.5582 31.8081 49.2962C32.0415 47.7256 33.4215 45.9828 35.0869 45.6905V45.6927ZM44.2094 53.2749C44.658 50.7751 45.1112 47.4813 41.6149 47.1563C40.278 47.032 35.7893 46.9884 34.8059 47.6035C32.9434 48.7661 33.5098 51.4601 33.7863 53.2749H44.2071H44.2094Z" fill="#2255A5"/>
<path d="M52.3056 45.69C53.4907 45.4588 58.4439 45.4828 59.7355 45.6355C61.7249 45.8689 63.2114 47.6401 63.4425 49.4812C63.7257 51.7257 63.7801 54.6967 60.8616 55.0195C58.8291 55.2442 53.6063 55.242 51.5738 55.0195C48.6009 54.6923 48.6893 51.5578 49.0269 49.2957C49.2625 47.7056 50.6447 46.0129 52.3034 45.69H52.3056ZM51.0095 53.2745H61.0905C61.8564 53.2745 61.7453 49.8694 61.6434 49.2521C61.4598 48.1462 60.1773 47.2911 59.0512 47.1668C57.8231 47.0337 53.0851 47.0141 52.1606 47.5114C50.1621 48.5868 50.715 51.4509 51.0095 53.2723V53.2745Z" fill="#2255A5"/>
<path d="M17.8681 45.69C19.0532 45.4588 24.0064 45.4828 25.298 45.6355C27.2874 45.8689 28.7739 47.6401 29.005 49.4812C29.2882 51.7257 29.3426 54.6967 26.4241 55.0195C24.3916 55.2442 19.1688 55.242 17.1363 55.0195C14.1634 54.6923 14.2518 51.5578 14.5894 49.2957C14.825 47.7056 16.2072 46.0129 17.8659 45.69H17.8681ZM26.9929 53.2745C27.4279 50.9448 27.872 47.5245 24.6137 47.1668C23.3878 47.0315 18.6453 47.0141 17.7231 47.5114C15.7246 48.5868 16.2775 51.4509 16.5721 53.2723H26.9929V53.2745Z" fill="#2255A5"/>
<path d="M28.8058 25.7899C26.9341 26.3026 27.0202 29.1884 27.206 30.7132C27.3012 31.5006 27.6909 31.601 28.4613 31.6861C30.1358 31.8715 35.4561 31.9064 37.0604 31.6664C37.4252 31.6119 37.9305 31.4614 38.0574 31.0993C38.1843 30.7372 38.1639 28.3726 38.1004 27.8578C37.9826 26.909 37.4025 26.0844 36.5098 25.6831L37.4139 24.5771C38.821 24.503 39.7409 26.7759 39.8814 27.8884C40.1692 30.1635 40.2236 32.9469 37.3119 33.2195C35.1571 33.4202 29.8866 33.4573 27.7793 33.213C23.6101 32.7309 25.5134 24.6644 27.598 24.5073L28.8035 25.7899H28.8058Z" fill="#2255A5"/>
<path d="M31.916 17.7783C33.586 17.5187 35.6321 18.3214 36.0014 20.0665C36.6857 23.3079 35.1358 26.353 31.2861 25.2602C28.3336 24.4226 28.311 18.341 31.916 17.7783ZM31.907 19.5168C30.2823 19.9836 30.1735 24.4182 33.1691 23.79C35.2877 23.345 35.0248 18.6203 31.907 19.5168Z" fill="#2255A5"/>
<path d="M38.0336 36.9694C39.7421 36.6662 41.8584 37.2966 42.3003 39.0831C43.0254 42.0017 41.7927 45.0796 38.2194 44.5364C34.6733 43.9976 34.5487 37.5911 38.0313 36.9694H38.0336ZM40.295 38.9413C38.0903 36.8254 35.6386 41.2317 38.1129 42.6801C40.3924 44.0129 41.727 40.3156 40.295 38.9413Z" fill="#2255A5"/>
<path d="M55.2524 36.9695C58.9458 36.3129 60.3506 39.2795 59.51 42.377C59.0545 44.0522 57.056 44.783 55.4382 44.5365C51.892 43.9977 51.7674 37.5911 55.2501 36.9695H55.2524ZM57.5069 38.9501C55.13 36.8626 52.9548 41.2885 55.3317 42.6802C57.7086 44.0718 58.9843 40.2502 57.5069 38.9501Z" fill="#2255A5"/>
<path d="M20.8149 36.9694C22.5233 36.6662 24.6397 37.2966 25.0815 39.0831C25.8066 42.0017 24.574 45.0796 21.0007 44.5364C17.4545 43.9976 17.3299 37.5911 20.8126 36.9694H20.8149ZM23.0694 38.9501C20.6925 36.8625 18.5173 41.2884 20.8942 42.6801C23.1759 44.0151 24.5468 40.2501 23.0694 38.9501Z" fill="#2255A5"/>
<path d="M43.6444 24.7036H53.3855C54.0426 24.7036 54.0426 26.2305 53.3855 26.2305H43.6444C43.1164 26.2305 42.8332 24.9697 43.6444 24.7036Z" fill="#2255A5"/>
<path d="M51.9128 22.7406H45.1152L44.9883 21.6543C45.1152 21.4754 45.2806 21.3227 45.5004 21.2595C45.9671 21.1264 51.0563 21.1264 51.5231 21.2595C52.3116 21.4863 52.1168 22.1647 51.9106 22.7428L51.9128 22.7406Z" fill="#2255A5"/>
</g>
<defs>
<clipPath id="clip0_1357_1747">
<rect width="58" height="48" fill="white" transform="translate(10 14)"/>
</clipPath>
</defs>
</svg>
