<svg width="78" height="76" viewBox="0 0 78 76" fill="none" xmlns="http://www.w3.org/2000/svg">
<rect width="78" height="76" rx="8" fill="#F2F2F2"/>
<g clip-path="url(#clip0_1357_1748)">
<path d="M20.0578 14.3249C21.8622 14.6323 23.3991 15.8184 23.8157 17.6258C24.1226 18.9613 23.8157 20.063 23.0549 21.1734L33.4012 31.5695C33.478 31.6539 33.5306 31.6453 33.6314 31.6171C33.8419 31.5587 34.5347 30.9959 34.8351 30.8314C35.6178 30.4028 37.2293 29.7751 38.1085 29.7751H39.6016L39.1499 22.9634C39.0249 22.7362 38.5185 22.8422 38.2992 22.7989C34.7057 22.0933 33.399 17.7167 36.2536 15.3487C36.9706 14.7535 37.6963 14.5046 38.6062 14.3228H39.4196C40.005 14.4721 40.4764 14.5587 41.0179 14.8444C43.7475 16.2773 44.1268 20.0652 41.6735 21.9526C41.2065 22.3119 40.7 22.4418 40.2418 22.7795L40.7745 29.9115C45.3502 30.8466 48.3408 35.2102 47.5625 39.7795L53.7146 39.3336C52.4692 34.9938 58.3144 32.0673 61.18 35.5825C64.438 39.576 59.0686 44.7557 55.1199 41.5652C54.6793 41.208 54.4293 40.734 54.0303 40.4028L47.4265 40.8509C47.1327 40.9007 46.8938 41.8314 46.7315 42.1301C46.3807 42.7751 45.8984 43.3357 45.4774 43.9331L55.7053 54.0327C62.0482 50.1886 66.0407 60.2102 58.7814 61.6647H57.968C57.5711 61.5544 57.1831 61.4981 56.7928 61.3509C55.0608 60.695 53.9075 58.8098 54.0873 56.9873C54.1684 56.1734 54.5938 55.4981 54.9402 54.786L44.6223 44.7015C41.406 47.4959 36.4159 47.431 33.2214 44.6279L22.9562 54.7448C24.7607 56.8422 23.9692 60.0652 21.4763 61.2362C21.0093 61.457 20.5555 61.55 20.0578 61.6669C19.7662 61.6431 19.4373 61.6994 19.1523 61.6669C12.8511 60.9548 15.1137 51.115 21.2571 53.4699C21.4829 53.5565 22.1669 54.0176 22.316 53.944L32.4102 43.9786C32.4585 43.9137 32.4628 43.8509 32.4431 43.7751C32.4146 43.6734 31.6034 42.6388 31.4433 42.3422C29.6915 39.1323 30.1651 35.1301 32.7194 32.4894L22.3204 21.957C19.1282 24.1994 14.8967 21.8552 15.3637 17.9526C15.5873 16.0673 17.383 14.5327 19.2444 14.3249H20.0578ZM19.2224 15.4223C15.1379 15.8812 15.6136 22.26 20.1828 21.7297C24.0766 21.2773 23.5394 14.9375 19.2224 15.4223ZM38.5843 15.4223C34.5435 15.8769 34.9688 22.2643 39.5446 21.7297C43.4252 21.2773 42.9736 14.9288 38.5843 15.4223ZM38.1348 30.8747C33.8309 31.3076 30.8185 35.431 31.588 39.6063C32.5988 45.0912 39.3955 47.6561 43.7629 44.0241C49.5467 39.2145 45.5892 30.1236 38.1326 30.8747H38.1348ZM57.5865 35.0717C53.5216 35.3509 53.7847 41.4678 57.8299 41.4851C62.1797 41.5024 62.0635 34.7643 57.5865 35.0717ZM19.0405 54.2751C15.1707 54.7989 15.7693 61.0435 20.003 60.5847C24.127 60.1388 23.6206 53.6561 19.0405 54.2751ZM57.8562 54.2773C53.8922 54.7773 54.5258 61.0089 58.7266 60.5847C62.9011 60.1626 62.3661 53.7102 57.8562 54.2773Z" fill="#F07838"/>
<path d="M19.3624 62.0002C19.2791 62.0002 19.198 61.998 19.1146 61.9872C17.2203 61.7729 15.8698 60.76 15.3173 59.1344C14.7056 57.34 15.2339 55.1864 16.6021 53.8985C17.8496 52.7232 19.5444 52.4634 21.3751 53.1669C21.4716 53.2037 21.5987 53.2751 21.761 53.366C21.8794 53.4331 22.0767 53.5435 22.2038 53.5976L32.0941 43.8314C32.0174 43.7188 31.8683 43.5175 31.7543 43.3617C31.5044 43.0219 31.2478 42.6712 31.1514 42.498C29.3557 39.2037 29.8096 35.2275 32.263 32.498L22.274 22.379C20.7042 23.3638 18.8033 23.4201 17.251 22.5132C15.6571 21.5781 14.8086 19.8162 15.0366 17.9136C15.269 15.9569 17.1019 14.2383 19.2067 14.0002H19.244L20.1144 14.0024C22.1732 14.353 23.7145 15.7123 24.1376 17.5522C24.427 18.8097 24.2165 19.9548 23.4755 21.1301L33.5806 31.2859C33.6946 31.2232 33.9512 31.0413 34.1112 30.9266C34.3261 30.7729 34.53 30.6279 34.6747 30.5478C35.5166 30.089 37.1785 29.4504 38.1059 29.4504H39.2482L38.8294 23.1431C38.7527 23.1322 38.6343 23.1344 38.5641 23.1344C38.4458 23.1344 38.3339 23.1344 38.2331 23.1171C36.3958 22.7556 34.9707 21.4418 34.5146 19.6885C34.0696 17.9764 34.6396 16.2621 36.0406 15.0998C36.8255 14.4483 37.606 14.1907 38.54 14.0045L38.6058 13.998L39.5025 14.0089L39.7612 14.0716C40.2326 14.1864 40.6777 14.2967 41.1754 14.5565C42.5698 15.2881 43.4841 16.6604 43.6222 18.2275C43.7581 19.7751 43.107 21.2621 41.8792 22.208C41.6117 22.4136 41.3398 22.5478 41.0789 22.6755C40.9079 22.76 40.7435 22.8422 40.5878 22.9396L41.0877 29.6452C45.5779 30.6907 48.5136 34.892 47.9502 39.4245L53.3064 39.0348C52.8569 36.8054 54.1615 35.0348 55.7291 34.234C57.4085 33.3768 59.8268 33.3963 61.4383 35.3747C63.2471 37.5911 62.5674 40.0435 61.0919 41.4894C59.6602 42.892 57.1147 43.5933 54.9135 41.8141C54.657 41.6084 54.4684 41.3768 54.2864 41.1517C54.1637 41.0002 54.0453 40.8574 53.9181 40.734L47.5226 41.169C47.424 41.2838 47.2793 41.6625 47.2069 41.8509C47.1411 42.024 47.0841 42.1755 47.0249 42.2816C46.7728 42.747 46.4571 43.1669 46.1501 43.5738C46.069 43.6799 45.9901 43.7881 45.9112 43.8963L55.762 53.6236C57.6124 52.5868 59.498 52.5738 60.9713 53.5976C62.4929 54.6561 63.291 56.6496 62.9073 58.4483C62.5236 60.2535 61.0459 61.5392 58.849 61.9786L58.7832 61.9851H57.9238L57.8799 61.9721C57.7418 61.9331 57.6037 61.9028 57.4677 61.8703C57.2112 61.8119 56.9481 61.7513 56.6762 61.6474C54.8192 60.9439 53.5673 58.9245 53.7624 56.9483C53.8326 56.2296 54.1439 55.6236 54.4443 55.037C54.4772 54.9742 54.5101 54.9093 54.543 54.8465L44.6066 45.1344C41.3683 47.747 36.4923 47.7167 33.2408 45.063L23.3988 54.7621C24.1617 55.7816 24.4424 57.0651 24.1661 58.3335C23.8592 59.7426 22.9318 60.905 21.6206 61.524C21.1668 61.7383 20.7371 61.8379 20.281 61.9439L20.0859 61.9894L20.0333 61.9851C19.9149 61.9764 19.7833 61.9829 19.6452 61.9872C19.5531 61.9916 19.4589 61.9959 19.3646 61.9959L19.3624 62.0002ZM19.4347 53.4331C18.5292 53.4331 17.7158 53.7491 17.0559 54.3682C15.8851 55.4699 15.4181 57.3877 15.9421 58.9266C16.4091 60.3011 17.5624 61.1582 19.1914 61.3422C19.3164 61.3574 19.4611 61.3487 19.6145 61.3422C19.7505 61.3357 19.8908 61.3292 20.0311 61.3379L20.1298 61.3162C20.5683 61.2145 20.9476 61.1258 21.3378 60.9439C22.4626 60.4136 23.2606 59.4158 23.5237 58.2037C23.7781 57.037 23.4799 55.8509 22.7081 54.9548L22.5108 54.7275L33.2101 44.1842L33.4425 44.3877C36.5251 47.0911 41.342 47.1236 44.4071 44.4612L44.6373 44.2621L55.341 54.7232L55.2402 54.9309C55.1722 55.0695 55.1042 55.2058 55.0341 55.3422C54.749 55.8985 54.4794 56.4266 54.4202 57.024C54.2535 58.7188 55.3257 60.4526 56.9152 61.0543C57.1432 61.1409 57.3756 61.195 57.619 61.2513C57.7506 61.2816 57.8821 61.3119 58.0158 61.3487H58.7525C60.6885 60.9526 61.936 59.8812 62.2649 58.327C62.5937 56.7751 61.9075 55.0543 60.5942 54.1409C59.2678 53.2188 57.5949 53.2816 55.8826 54.3206L55.6611 54.4548L45.0561 43.9829L45.2139 43.76C45.3477 43.5716 45.4858 43.3877 45.6261 43.2015C45.9309 42.7967 46.2203 42.4136 46.4483 41.9894C46.4856 41.9201 46.5404 41.7751 46.593 41.6366C46.7947 41.1084 46.9833 40.6106 47.3757 40.5435L47.4086 40.5392L54.1461 40.0825L54.247 40.1669C54.4618 40.3465 54.635 40.5565 54.7995 40.76C54.9683 40.9677 55.1283 41.1625 55.3323 41.3271C57.2287 42.8595 59.3598 42.2881 60.6315 41.0435C61.8987 39.8032 62.4819 37.6993 60.9297 35.7967C59.5506 34.1063 57.4765 34.0911 56.0338 34.8271C54.7184 35.498 53.4073 37.0608 54.0365 39.2578L54.1461 39.6409L47.174 40.1474L47.2442 39.7383C47.9984 35.3162 45.1284 31.1452 40.7128 30.2426L40.4694 30.1929L39.9059 22.6387L40.0507 22.5327C40.294 22.353 40.5462 22.2275 40.7873 22.1084C41.0307 21.9894 41.2609 21.8747 41.4758 21.708C42.5282 20.8985 43.085 19.6236 42.9688 18.2967C42.8505 16.9504 42.0655 15.7708 40.8684 15.1431C40.4431 14.9201 40.0748 14.8292 39.6056 14.7145L39.3841 14.6604H38.6431C37.8231 14.8271 37.1368 15.0543 36.4681 15.6106C35.2667 16.6084 34.7755 18.0781 35.157 19.5413C35.5495 21.05 36.7795 22.182 38.3668 22.4937C38.3997 22.5002 38.4918 22.5002 38.5641 22.498C38.8426 22.498 39.2635 22.4916 39.4433 22.8227L39.4784 22.8855L39.9586 30.1128H38.1147C37.3079 30.1128 35.7622 30.7145 35.0014 31.1279C34.8895 31.1885 34.6944 31.3292 34.5037 31.4634C34.1309 31.7296 33.8942 31.8942 33.7253 31.9418C33.6201 31.9699 33.3767 32.037 33.1619 31.7967L22.6402 21.2232L22.7914 21.0024C23.5522 19.8898 23.7715 18.8747 23.504 17.708C23.1422 16.1366 21.8158 14.9721 20.0377 14.6604H19.2703C17.4944 14.8682 15.8939 16.3638 15.6966 18.0002C15.497 19.669 16.2074 21.1496 17.5953 21.9612C19.0006 22.7816 20.7393 22.6842 22.1359 21.7015L22.3661 21.5392L33.1816 32.4959L32.9624 32.7232C30.5177 35.2513 30.0266 39.0587 31.739 42.1972C31.8135 42.3314 32.0788 42.695 32.2936 42.9872C32.6883 43.524 32.7409 43.6041 32.7672 43.6993C32.8155 43.879 32.787 44.0392 32.6817 44.1799L32.6488 44.2167L22.5174 54.2188L22.4691 54.2426C22.2236 54.3638 21.9495 54.221 21.4431 53.9396C21.3269 53.8747 21.1975 53.8011 21.1427 53.7816C20.5529 53.5543 19.9785 53.4418 19.4391 53.4418L19.4347 53.4331ZM19.5619 60.9331C17.4922 60.9331 16.3499 59.3833 16.157 57.84C15.9421 56.1279 16.8498 54.2426 18.9962 53.9526C20.4236 53.76 21.6316 54.1993 22.3968 55.1885C23.1839 56.2102 23.3615 57.708 22.8353 58.9158C22.3464 60.0392 21.3269 60.7643 20.0399 60.905C19.8754 60.9223 19.7176 60.9309 19.5619 60.9309V60.9331ZM19.0839 54.5954C17.2795 54.84 16.6393 56.4071 16.8082 57.7599C16.9835 59.1561 18.0272 60.4721 19.9653 60.26C21.0265 60.1452 21.8311 59.5781 22.228 58.6604C22.6621 57.6604 22.5196 56.4223 21.8706 55.5825C21.2567 54.7859 20.2679 54.4353 19.0839 54.5954ZM58.314 60.9288C56.2246 60.9288 55.0845 59.3574 54.9025 57.8011C54.703 56.0976 55.6414 54.2296 57.8141 53.9548C59.2239 53.7773 60.4166 54.2275 61.1708 55.2232C61.9514 56.2513 62.118 57.747 61.5852 58.9439C61.0831 60.076 60.079 60.7729 58.7591 60.9071C58.6056 60.9223 58.4565 60.9309 58.314 60.9309V60.9288ZM57.8975 54.5976C56.0645 54.8292 55.398 56.3812 55.5559 57.7253C55.7203 59.1279 56.753 60.4569 58.6933 60.2578C59.7676 60.1496 60.5811 59.589 60.9845 58.6799C61.423 57.6907 61.287 56.4569 60.6446 55.6084C60.0373 54.8076 59.0639 54.4483 57.8975 54.5954V54.5976ZM39.0838 46.0413C38.187 46.0413 37.2772 45.8877 36.3892 45.5716C33.6837 44.6106 31.7675 42.4028 31.2632 39.6669C30.8729 37.5457 31.4123 35.3271 32.7453 33.5738C34.0652 31.84 35.9661 30.7686 38.0993 30.5522C41.6534 30.1929 44.8412 32.037 46.2203 35.2491C47.595 38.4526 46.7136 41.9959 43.9752 44.2751C42.5764 45.4374 40.8553 46.0435 39.0838 46.0435V46.0413ZM38.1673 31.1993C36.2204 31.3963 34.4817 32.3768 33.2737 33.9656C32.0503 35.5716 31.5548 37.6084 31.9122 39.5522C32.3748 42.0587 34.131 44.0825 36.6128 44.9634C39.0333 45.8227 41.627 45.3812 43.552 43.7794C46.0668 41.6885 46.8758 38.4396 45.6152 35.5045C44.3523 32.5608 41.4275 30.8725 38.1673 31.2015V31.1993ZM57.847 41.8097H57.8295C55.5098 41.8011 54.3939 40.0175 54.3369 38.3617C54.282 36.7318 55.2687 34.905 57.562 34.747C58.9498 34.6517 60.0834 35.1777 60.763 36.2253C61.4975 37.3595 61.5435 38.9223 60.8792 40.1149C60.2697 41.2058 59.1932 41.8076 57.8448 41.8076L57.847 41.8097ZM57.6102 35.3963C55.7401 35.524 54.9508 36.9677 54.9968 38.34C55.0428 39.6929 55.9483 41.1517 57.8339 41.1582C58.9411 41.1669 59.8181 40.6799 60.307 39.8011C60.8595 38.8119 60.82 37.5132 60.2127 36.5738C59.669 35.734 58.7459 35.3162 57.6124 35.3942L57.6102 35.3963ZM39.0158 22.0846C37.8341 22.0846 36.8474 21.6258 36.1985 20.7643C35.4201 19.7318 35.2601 18.2794 35.7907 17.0673C36.2774 15.9569 37.2815 15.2405 38.5466 15.0976C40.9759 14.8206 42.2936 16.4937 42.4887 18.1604C42.6926 19.9006 41.7608 21.7967 39.5837 22.05C39.3907 22.0716 39.2022 22.0846 39.0158 22.0846ZM38.6212 15.7448C37.5819 15.8617 36.7904 16.4245 36.3936 17.3271C35.9617 18.3141 36.0932 19.5392 36.7247 20.3768C37.3298 21.1799 38.3164 21.5435 39.5047 21.405C41.2543 21.2015 42.002 19.6561 41.8353 18.234C41.6709 16.8314 40.6119 15.5175 38.6212 15.7426V15.7448ZM19.6584 22.0846C18.4722 22.0846 17.4791 21.6236 16.8235 20.7535C16.0452 19.7188 15.8829 18.2729 16.4113 17.0695C16.898 15.9613 17.9088 15.2426 19.187 15.0976C21.6031 14.8249 22.9142 16.5089 23.1115 18.1885C23.3132 19.918 22.388 21.7989 20.224 22.05C20.0311 22.0716 19.8425 22.0825 19.6606 22.0825L19.6584 22.0846ZM19.6869 15.7188C19.5509 15.7188 19.4084 15.7275 19.2615 15.7426C18.2091 15.8617 17.4111 16.4245 17.0164 17.3271C16.5867 18.3076 16.7226 19.5283 17.3519 20.366C17.9614 21.1755 18.9546 21.5457 20.1451 21.4071C21.8816 21.2058 22.6226 19.6755 22.456 18.2664C22.3025 16.9569 21.3882 15.721 19.6847 15.721L19.6869 15.7188Z" fill="#F07838"/>
</g>
<defs>
<clipPath id="clip0_1357_1748">
<rect width="48" height="48" fill="white" transform="translate(15 14)"/>
</clipPath>
</defs>
</svg>
